<svg width="16" height="16" viewBox="0 0 16 16" fill="none" xmlns="http://www.w3.org/2000/svg">
<g clip-path="url(#clip0_2_974)">
<path d="M13.7777 3.55554H10.2222V4.44443H13.7777V13.7778H10.2222V14.6667H14.6666V4.44443C14.6666 4.20868 14.573 3.98259 14.4063 3.81589C14.2396 3.64919 14.0135 3.55554 13.7777 3.55554Z" fill="black"/>
<path d="M8.83561 1.33337H2.72005C2.47016 1.33337 2.2305 1.43264 2.0538 1.60934C1.8771 1.78605 1.77783 2.0257 1.77783 2.2756V14.6667H9.77783V2.2756C9.77783 2.0257 9.67856 1.78605 9.50186 1.60934C9.32516 1.43264 9.0855 1.33337 8.83561 1.33337ZM8.88894 13.7778H7.55561V12.4445H4.00005V13.7778H2.66672V2.2756C2.66672 2.26859 2.6681 2.26166 2.67078 2.25519C2.67346 2.24872 2.67739 2.24284 2.68234 2.23788C2.68729 2.23293 2.69317 2.229 2.69964 2.22632C2.70612 2.22364 2.71305 2.22226 2.72005 2.22226H8.83561C8.84261 2.22226 8.84955 2.22364 8.85602 2.22632C8.86249 2.229 8.86837 2.23293 8.87332 2.23788C8.87827 2.24284 8.8822 2.24872 8.88488 2.25519C8.88756 2.26166 8.88894 2.26859 8.88894 2.2756V13.7778Z" fill="black"/>
<path d="M3.55566 3.55554H4.44455V4.44443H3.55566V3.55554Z" fill="black"/>
<path d="M5.33325 3.55554H6.22214V4.44443H5.33325V3.55554Z" fill="black"/>
<path d="M7.11108 3.55554H7.99997V4.44443H7.11108V3.55554Z" fill="black"/>
<path d="M3.55566 5.77783H4.44455V6.66672H3.55566V5.77783Z" fill="black"/>
<path d="M5.33325 5.77783H6.22214V6.66672H5.33325V5.77783Z" fill="black"/>
<path d="M7.11108 5.77783H7.99997V6.66672H7.11108V5.77783Z" fill="black"/>
<path d="M3.55566 8H4.44455V8.88889H3.55566V8Z" fill="black"/>
<path d="M5.33325 8H6.22214V8.88889H5.33325V8Z" fill="black"/>
<path d="M7.11108 8H7.99997V8.88889H7.11108V8Z" fill="black"/>
<path d="M3.55566 10.2222H4.44455V11.1111H3.55566V10.2222Z" fill="black"/>
<path d="M5.33325 10.2222H6.22214V11.1111H5.33325V10.2222Z" fill="black"/>
<path d="M7.11108 10.2222H7.99997V11.1111H7.11108V10.2222Z" fill="black"/>
<path d="M10.2222 5.77783H11.1111V6.66672H10.2222V5.77783Z" fill="black"/>
<path d="M12 5.77783H12.8889V6.66672H12V5.77783Z" fill="black"/>
<path d="M10.2222 8H11.1111V8.88889H10.2222V8Z" fill="black"/>
<path d="M12 8H12.8889V8.88889H12V8Z" fill="black"/>
<path d="M10.2222 10.2222H11.1111V11.1111H10.2222V10.2222Z" fill="black"/>
<path d="M12 10.2222H12.8889V11.1111H12V10.2222Z" fill="black"/>
</g>
<defs>
<clipPath id="clip0_2_974">
<rect width="16" height="16" fill="white"/>
</clipPath>
</defs>
</svg>
