<svg width="17" height="17" viewBox="0 0 17 17" fill="none" xmlns="http://www.w3.org/2000/svg">
<g filter="url(#filter0_i_2_244)">
<path d="M8.5 14.4973C11.6907 14.4973 14.2773 11.9107 14.2773 8.71997C14.2773 5.52923 11.6907 2.94263 8.5 2.94263C5.30926 2.94263 2.72266 5.52923 2.72266 8.71997C2.72266 11.9107 5.30926 14.4973 8.5 14.4973Z" fill="url(#paint0_linear_2_244)"/>
</g>
<g filter="url(#filter1_iiii_2_244)">
<path fill-rule="evenodd" clip-rule="evenodd" d="M8.50001 16.141C12.5986 16.141 15.921 12.8186 15.921 8.71998C15.921 4.62139 12.5986 1.29895 8.50001 1.29895C4.40142 1.29895 1.07898 4.62192 1.07898 8.72051C1.07898 12.8186 4.40142 16.141 8.50001 16.141ZM8.50001 14.4973C11.6907 14.4973 14.2774 11.9107 14.2774 8.71998C14.2774 5.52929 11.6907 2.94317 8.50001 2.94317C5.30932 2.94317 2.72267 5.52929 2.72267 8.71998C2.72267 11.9107 5.30932 14.4979 8.50001 14.4979" fill="url(#paint1_linear_2_244)"/>
</g>
<g filter="url(#filter2_f_2_244)">
<path fill-rule="evenodd" clip-rule="evenodd" d="M5.26628 6.01109C5.22096 6.03991 5.18367 6.07971 5.15785 6.1268C5.13203 6.17388 5.11853 6.22673 5.11859 6.28043V6.42918C5.11861 6.49391 5.14226 6.55641 5.18511 6.60493C5.22796 6.65345 5.28705 6.68466 5.35128 6.69268V10.7286H5.2939C5.2116 10.7286 5.13164 10.756 5.06656 10.8064C5.00147 10.8568 4.95494 10.9273 4.93425 11.007L4.76956 11.637C4.75933 11.6763 4.75824 11.7174 4.76637 11.7572C4.7745 11.7969 4.79164 11.8343 4.81647 11.8664C4.8413 11.8985 4.87316 11.9245 4.9096 11.9424C4.94604 11.9603 4.98609 11.9696 5.02668 11.9696H11.6407C11.6807 11.9696 11.7202 11.9607 11.7562 11.9434C11.7922 11.926 11.8239 11.9008 11.8488 11.8696C11.8737 11.8383 11.8913 11.8018 11.9001 11.7629C11.909 11.7239 11.9089 11.6834 11.9 11.6445L11.7555 11.0171C11.7366 10.935 11.6904 10.8618 11.6245 10.8094C11.5586 10.757 11.4769 10.7285 11.3927 10.7286H11.3358V6.69109C11.3982 6.68123 11.4551 6.64945 11.4962 6.60145C11.5373 6.55345 11.5599 6.49237 11.56 6.42918V6.28043C11.5601 6.22678 11.5467 6.17397 11.521 6.12688C11.4952 6.0798 11.4581 6.03997 11.4128 6.01109L8.55312 4.19156C8.48915 4.1508 8.41488 4.12915 8.33903 4.12915C8.26318 4.12915 8.1889 4.1508 8.12493 4.19156L5.26628 6.01109ZM10.481 10.7286V6.69481H9.62571V10.7286H10.481ZM8.77093 10.7286V6.69481H7.91562V10.7286H8.77093ZM7.06084 10.7286V6.69481H6.20606V10.7286H7.06084Z" fill="#DC7B3C"/>
</g>
<g filter="url(#filter3_ii_2_244)">
<path d="M5.28491 6.13073C5.28488 6.07717 5.29835 6.02446 5.32407 5.97748C5.34979 5.93049 5.38693 5.89075 5.43207 5.86192L8.29179 4.04185C8.3557 4.0012 8.42987 3.97961 8.50562 3.97961C8.58136 3.97961 8.65553 4.0012 8.71944 4.04185L11.5786 5.86192C11.6239 5.89069 11.6611 5.9304 11.6869 5.97739C11.7127 6.02438 11.7263 6.07712 11.7263 6.13073V6.27948C11.7263 6.34993 11.6983 6.41749 11.6485 6.4673C11.5987 6.51712 11.5311 6.5451 11.4607 6.5451H5.55054C5.48009 6.5451 5.41253 6.51712 5.36271 6.4673C5.3129 6.41749 5.28491 6.34993 5.28491 6.27948V6.13073Z" fill="#FFC546"/>
</g>
<path d="M5.28491 6.13073C5.28488 6.07717 5.29835 6.02446 5.32407 5.97748C5.34979 5.93049 5.38693 5.89075 5.43207 5.86192L8.29179 4.04185C8.3557 4.0012 8.42987 3.97961 8.50562 3.97961C8.58136 3.97961 8.65553 4.0012 8.71944 4.04185L11.5786 5.86192C11.6239 5.89069 11.6611 5.9304 11.6869 5.97739C11.7127 6.02438 11.7263 6.07712 11.7263 6.13073V6.27948C11.7263 6.34993 11.6983 6.41749 11.6485 6.4673C11.5987 6.51712 11.5311 6.5451 11.4607 6.5451H5.55054C5.48009 6.5451 5.41253 6.51712 5.36271 6.4673C5.3129 6.41749 5.28491 6.34993 5.28491 6.27948V6.13073Z" fill="url(#paint2_linear_2_244)"/>
<path d="M5.51703 6.43726C5.51703 6.40203 5.53102 6.36825 5.55593 6.34334C5.58084 6.31844 5.61462 6.30444 5.64984 6.30444H6.23953C6.27475 6.30444 6.30853 6.31844 6.33344 6.34334C6.35835 6.36825 6.37234 6.40203 6.37234 6.43726V10.6958H5.51703V6.43726Z" fill="url(#paint3_linear_2_244)"/>
<path d="M5.51703 6.43726C5.51703 6.40203 5.53102 6.36825 5.55593 6.34334C5.58084 6.31844 5.61462 6.30444 5.64984 6.30444H6.23953C6.27475 6.30444 6.30853 6.31844 6.33344 6.34334C6.35835 6.36825 6.37234 6.40203 6.37234 6.43726V10.6958H5.51703V6.43726Z" fill="url(#paint4_linear_2_244)"/>
<path d="M7.22711 6.30444H8.08189V10.6958H7.22711V6.30444Z" fill="url(#paint5_linear_2_244)"/>
<path d="M7.22711 6.30444H8.08189V10.6958H7.22711V6.30444Z" fill="url(#paint6_linear_2_244)"/>
<path d="M8.93726 6.30444H9.79204V10.6958H8.93726V6.30444Z" fill="url(#paint7_linear_2_244)"/>
<path d="M8.93726 6.30444H9.79204V10.6958H8.93726V6.30444Z" fill="url(#paint8_linear_2_244)"/>
<path d="M10.6468 6.30444H11.5016V10.6958H10.6468V6.30444Z" fill="url(#paint9_linear_2_244)"/>
<path d="M10.6468 6.30444H11.5016V10.6958H10.6468V6.30444Z" fill="url(#paint10_linear_2_244)"/>
<g filter="url(#filter4_ii_2_244)">
<path d="M5.10004 10.8572C5.12085 10.7775 5.16751 10.7071 5.23269 10.6568C5.29787 10.6065 5.3779 10.5793 5.46022 10.5793H11.559C11.6431 10.5794 11.7247 10.6079 11.7905 10.6603C11.8563 10.7127 11.9024 10.7858 11.9213 10.8678L12.0663 11.4947C12.0754 11.5337 12.0755 11.5742 12.0667 11.6133C12.0578 11.6523 12.0403 11.6888 12.0154 11.7202C11.9904 11.7515 11.9588 11.7768 11.9227 11.7941C11.8866 11.8114 11.8471 11.8204 11.8071 11.8203H5.193C5.15241 11.8204 5.11236 11.8111 5.07592 11.7932C5.03948 11.7753 5.00762 11.7493 4.98279 11.7172C4.95796 11.6851 4.94082 11.6477 4.93269 11.6079C4.92456 11.5682 4.92565 11.5271 4.93588 11.4878L5.10004 10.8572Z" fill="#FFC248"/>
</g>
<defs>
<filter id="filter0_i_2_244" x="2.47266" y="2.94263" width="11.8047" height="11.8047" filterUnits="userSpaceOnUse" color-interpolation-filters="sRGB">
<feFlood flood-opacity="0" result="BackgroundImageFix"/>
<feBlend mode="normal" in="SourceGraphic" in2="BackgroundImageFix" result="shape"/>
<feColorMatrix in="SourceAlpha" type="matrix" values="0 0 0 0 0 0 0 0 0 0 0 0 0 0 0 0 0 0 127 0" result="hardAlpha"/>
<feOffset dx="-0.25" dy="0.25"/>
<feGaussianBlur stdDeviation="0.5"/>
<feComposite in2="hardAlpha" operator="arithmetic" k2="-1" k3="1"/>
<feColorMatrix type="matrix" values="0 0 0 0 0.831373 0 0 0 0 0.45098 0 0 0 0 0.196078 0 0 0 1 0"/>
<feBlend mode="normal" in2="shape" result="effect1_innerShadow_2_244"/>
</filter>
<filter id="filter1_iiii_2_244" x="0.778979" y="0.99895" width="15.442" height="15.442" filterUnits="userSpaceOnUse" color-interpolation-filters="sRGB">
<feFlood flood-opacity="0" result="BackgroundImageFix"/>
<feBlend mode="normal" in="SourceGraphic" in2="BackgroundImageFix" result="shape"/>
<feColorMatrix in="SourceAlpha" type="matrix" values="0 0 0 0 0 0 0 0 0 0 0 0 0 0 0 0 0 0 127 0" result="hardAlpha"/>
<feOffset dx="0.3" dy="0.3"/>
<feGaussianBlur stdDeviation="0.3"/>
<feComposite in2="hardAlpha" operator="arithmetic" k2="-1" k3="1"/>
<feColorMatrix type="matrix" values="0 0 0 0 0.886275 0 0 0 0 0.662745 0 0 0 0 0.235294 0 0 0 1 0"/>
<feBlend mode="normal" in2="shape" result="effect1_innerShadow_2_244"/>
<feColorMatrix in="SourceAlpha" type="matrix" values="0 0 0 0 0 0 0 0 0 0 0 0 0 0 0 0 0 0 127 0" result="hardAlpha"/>
<feOffset dx="0.3" dy="-0.3"/>
<feGaussianBlur stdDeviation="0.3"/>
<feComposite in2="hardAlpha" operator="arithmetic" k2="-1" k3="1"/>
<feColorMatrix type="matrix" values="0 0 0 0 0.956863 0 0 0 0 0.607843 0 0 0 0 0.294118 0 0 0 1 0"/>
<feBlend mode="normal" in2="effect1_innerShadow_2_244" result="effect2_innerShadow_2_244"/>
<feColorMatrix in="SourceAlpha" type="matrix" values="0 0 0 0 0 0 0 0 0 0 0 0 0 0 0 0 0 0 127 0" result="hardAlpha"/>
<feOffset dy="-0.3"/>
<feGaussianBlur stdDeviation="0.3"/>
<feComposite in2="hardAlpha" operator="arithmetic" k2="-1" k3="1"/>
<feColorMatrix type="matrix" values="0 0 0 0 0.956863 0 0 0 0 0.607843 0 0 0 0 0.294118 0 0 0 1 0"/>
<feBlend mode="normal" in2="effect2_innerShadow_2_244" result="effect3_innerShadow_2_244"/>
<feColorMatrix in="SourceAlpha" type="matrix" values="0 0 0 0 0 0 0 0 0 0 0 0 0 0 0 0 0 0 127 0" result="hardAlpha"/>
<feOffset dx="-0.3" dy="0.3"/>
<feGaussianBlur stdDeviation="0.3"/>
<feComposite in2="hardAlpha" operator="arithmetic" k2="-1" k3="1"/>
<feColorMatrix type="matrix" values="0 0 0 0 1 0 0 0 0 0.882353 0 0 0 0 0.337255 0 0 0 1 0"/>
<feBlend mode="normal" in2="effect3_innerShadow_2_244" result="effect4_innerShadow_2_244"/>
</filter>
<filter id="filter2_f_2_244" x="4.16099" y="3.52915" width="8.34575" height="9.04045" filterUnits="userSpaceOnUse" color-interpolation-filters="sRGB">
<feFlood flood-opacity="0" result="BackgroundImageFix"/>
<feBlend mode="normal" in="SourceGraphic" in2="BackgroundImageFix" result="shape"/>
<feGaussianBlur stdDeviation="0.3" result="effect1_foregroundBlur_2_244"/>
</filter>
<filter id="filter3_ii_2_244" x="5.28491" y="3.72961" width="6.59141" height="3.06543" filterUnits="userSpaceOnUse" color-interpolation-filters="sRGB">
<feFlood flood-opacity="0" result="BackgroundImageFix"/>
<feBlend mode="normal" in="SourceGraphic" in2="BackgroundImageFix" result="shape"/>
<feColorMatrix in="SourceAlpha" type="matrix" values="0 0 0 0 0 0 0 0 0 0 0 0 0 0 0 0 0 0 127 0" result="hardAlpha"/>
<feOffset dy="-0.25"/>
<feGaussianBlur stdDeviation="0.25"/>
<feComposite in2="hardAlpha" operator="arithmetic" k2="-1" k3="1"/>
<feColorMatrix type="matrix" values="0 0 0 0 0.980392 0 0 0 0 0.647059 0 0 0 0 0.172549 0 0 0 1 0"/>
<feBlend mode="normal" in2="shape" result="effect1_innerShadow_2_244"/>
<feColorMatrix in="SourceAlpha" type="matrix" values="0 0 0 0 0 0 0 0 0 0 0 0 0 0 0 0 0 0 127 0" result="hardAlpha"/>
<feOffset dx="0.15" dy="0.25"/>
<feGaussianBlur stdDeviation="0.25"/>
<feComposite in2="hardAlpha" operator="arithmetic" k2="-1" k3="1"/>
<feColorMatrix type="matrix" values="0 0 0 0 0.980392 0 0 0 0 0.647059 0 0 0 0 0.172549 0 0 0 1 0"/>
<feBlend mode="normal" in2="effect1_innerShadow_2_244" result="effect2_innerShadow_2_244"/>
</filter>
<filter id="filter4_ii_2_244" x="4.67731" y="10.3293" width="7.64587" height="1.74097" filterUnits="userSpaceOnUse" color-interpolation-filters="sRGB">
<feFlood flood-opacity="0" result="BackgroundImageFix"/>
<feBlend mode="normal" in="SourceGraphic" in2="BackgroundImageFix" result="shape"/>
<feColorMatrix in="SourceAlpha" type="matrix" values="0 0 0 0 0 0 0 0 0 0 0 0 0 0 0 0 0 0 127 0" result="hardAlpha"/>
<feOffset dx="0.25" dy="-0.25"/>
<feGaussianBlur stdDeviation="0.2"/>
<feComposite in2="hardAlpha" operator="arithmetic" k2="-1" k3="1"/>
<feColorMatrix type="matrix" values="0 0 0 0 0.992157 0 0 0 0 0.658824 0 0 0 0 0.0705882 0 0 0 1 0"/>
<feBlend mode="normal" in2="shape" result="effect1_innerShadow_2_244"/>
<feColorMatrix in="SourceAlpha" type="matrix" values="0 0 0 0 0 0 0 0 0 0 0 0 0 0 0 0 0 0 127 0" result="hardAlpha"/>
<feOffset dx="-0.25" dy="0.25"/>
<feGaussianBlur stdDeviation="0.2"/>
<feComposite in2="hardAlpha" operator="arithmetic" k2="-1" k3="1"/>
<feColorMatrix type="matrix" values="0 0 0 0 1 0 0 0 0 0.8 0 0 0 0 0.290196 0 0 0 1 0"/>
<feBlend mode="normal" in2="effect1_innerShadow_2_244" result="effect2_innerShadow_2_244"/>
</filter>
<linearGradient id="paint0_linear_2_244" x1="6.14284" y1="11.6089" x2="12.385" y2="3.7395" gradientUnits="userSpaceOnUse">
<stop stop-color="#F19D48"/>
<stop offset="1" stop-color="#E89A44"/>
</linearGradient>
<linearGradient id="paint1_linear_2_244" x1="8.50001" y1="1.29895" x2="8.50001" y2="16.141" gradientUnits="userSpaceOnUse">
<stop stop-color="#FFC444"/>
<stop offset="1" stop-color="#FFC24B"/>
</linearGradient>
<linearGradient id="paint2_linear_2_244" x1="10.2601" y1="4.93488" x2="10.0438" y2="5.26267" gradientUnits="userSpaceOnUse">
<stop offset="0.459" stop-color="#FFCA3F"/>
<stop offset="1" stop-color="#FFCA3F" stop-opacity="0"/>
</linearGradient>
<linearGradient id="paint3_linear_2_244" x1="5.59459" y1="8.00019" x2="6.01003" y2="8.00019" gradientUnits="userSpaceOnUse">
<stop offset="0.167" stop-color="#FFB33B"/>
<stop offset="1" stop-color="#FFC047"/>
</linearGradient>
<linearGradient id="paint4_linear_2_244" x1="6.37234" y1="8.86454" x2="6.16728" y2="8.86454" gradientUnits="userSpaceOnUse">
<stop offset="0.067" stop-color="#FFC34C"/>
<stop offset="1" stop-color="#FFC34C" stop-opacity="0"/>
</linearGradient>
<linearGradient id="paint5_linear_2_244" x1="7.30467" y1="8.00019" x2="7.71958" y2="8.00019" gradientUnits="userSpaceOnUse">
<stop offset="0.167" stop-color="#FFB33B"/>
<stop offset="1" stop-color="#FFC047"/>
</linearGradient>
<linearGradient id="paint6_linear_2_244" x1="8.08189" y1="8.86454" x2="7.87736" y2="8.86454" gradientUnits="userSpaceOnUse">
<stop offset="0.067" stop-color="#FFC34C"/>
<stop offset="1" stop-color="#FFC34C" stop-opacity="0"/>
</linearGradient>
<linearGradient id="paint7_linear_2_244" x1="9.01482" y1="8.00019" x2="9.42972" y2="8.00019" gradientUnits="userSpaceOnUse">
<stop offset="0.167" stop-color="#FFB33B"/>
<stop offset="1" stop-color="#FFC047"/>
</linearGradient>
<linearGradient id="paint8_linear_2_244" x1="9.79204" y1="8.86454" x2="9.58751" y2="8.86454" gradientUnits="userSpaceOnUse">
<stop offset="0.067" stop-color="#FFC34C"/>
<stop offset="1" stop-color="#FFC34C" stop-opacity="0"/>
</linearGradient>
<linearGradient id="paint9_linear_2_244" x1="10.7249" y1="8.00019" x2="11.1398" y2="8.00019" gradientUnits="userSpaceOnUse">
<stop offset="0.167" stop-color="#FFB33B"/>
<stop offset="1" stop-color="#FFC047"/>
</linearGradient>
<linearGradient id="paint10_linear_2_244" x1="11.5021" y1="8.86454" x2="11.2976" y2="8.86454" gradientUnits="userSpaceOnUse">
<stop offset="0.067" stop-color="#FFC34C"/>
<stop offset="1" stop-color="#FFC34C" stop-opacity="0"/>
</linearGradient>
</defs>
</svg>
