<svg width="15" height="16" viewBox="0 0 15 16" fill="none" xmlns="http://www.w3.org/2000/svg">
<g clip-path="url(#clip0_2_962)">
<path d="M7.5 7C6.83696 7 6.20107 6.73661 5.73223 6.26777C5.26339 5.79893 5 5.16304 5 4.5C5 3.83696 5.26339 3.20107 5.73223 2.73223C6.20107 2.26339 6.83696 2 7.5 2C8.16304 2 8.79893 2.26339 9.26777 2.73223C9.73661 3.20107 10 3.83696 10 4.5C10 5.16304 9.73661 5.79893 9.26777 6.26777C8.79893 6.73661 8.16304 7 7.5 7ZM7.5 3C6.67 3 6 3.67 6 4.5C6 5.33 6.67 6 7.5 6C8.33 6 9 5.33 9 4.5C9 3.67 8.33 3 7.5 3Z" fill="black"/>
<path d="M13.5 11C13.22 11 13 10.78 13 10.5C13 10.22 13.22 10 13.5 10C13.78 10 14 9.78 14 9.5C14 8.83696 13.7366 8.20107 13.2678 7.73223C12.7989 7.26339 12.163 7 11.5 7H10.5C10.22 7 10 6.78 10 6.5C10 6.22 10.22 6 10.5 6C11.33 6 12 5.33 12 4.5C12 3.67 11.33 3 10.5 3C10.22 3 10 2.78 10 2.5C10 2.22 10.22 2 10.5 2C11.163 2 11.7989 2.26339 12.2678 2.73223C12.7366 3.20107 13 3.83696 13 4.5C13 5.12 12.78 5.68 12.4 6.12C13.89 6.52 15 7.88 15 9.5C15 10.33 14.33 11 13.5 11ZM1.5 11C0.67 11 0 10.33 0 9.5C0 7.88 1.1 6.52 2.6 6.12C2.23 5.68 2 5.12 2 4.5C2 3.83696 2.26339 3.20107 2.73223 2.73223C3.20107 2.26339 3.83696 2 4.5 2C4.78 2 5 2.22 5 2.5C5 2.78 4.78 3 4.5 3C3.67 3 3 3.67 3 4.5C3 5.33 3.67 6 4.5 6C4.78 6 5 6.22 5 6.5C5 6.78 4.78 7 4.5 7H3.5C2.83696 7 2.20107 7.26339 1.73223 7.73223C1.26339 8.20107 1 8.83696 1 9.5C1 9.78 1.22 10 1.5 10C1.78 10 2 10.22 2 10.5C2 10.78 1.78 11 1.5 11ZM10.5 14H4.5C3.67 14 3 13.33 3 12.5V11.5C3 9.57 4.57 8 6.5 8H8.5C10.43 8 12 9.57 12 11.5V12.5C12 13.33 11.33 14 10.5 14ZM6.5 9C5.83696 9 5.20107 9.26339 4.73223 9.73223C4.26339 10.2011 4 10.837 4 11.5V12.5C4 12.78 4.22 13 4.5 13H10.5C10.78 13 11 12.78 11 12.5V11.5C11 10.837 10.7366 10.2011 10.2678 9.73223C9.79893 9.26339 9.16304 9 8.5 9H6.5Z" fill="black"/>
<path d="M43.0349 35.0625C42.1424 35.0625 41.4412 34.3612 41.4412 33.4688C41.4412 32.5763 42.1424 31.875 43.0349 31.875C43.9274 31.875 44.6287 31.1737 44.6287 30.2812C44.6287 28.1678 43.7891 26.1409 42.2947 24.6465C40.8002 23.1521 38.7734 22.3125 36.6599 22.3125H33.4724C32.5799 22.3125 31.8787 21.6112 31.8787 20.7188C31.8787 19.8263 32.5799 19.125 33.4724 19.125C36.118 19.125 38.2537 16.9894 38.2537 14.3438C38.2537 11.6981 36.118 9.5625 33.4724 9.5625C32.5799 9.5625 31.8787 8.86125 31.8787 7.96875C31.8787 7.07625 32.5799 6.375 33.4724 6.375C35.5859 6.375 37.6127 7.21456 39.1072 8.70899C40.6016 10.2034 41.4412 12.2303 41.4412 14.3438C41.4412 16.32 40.7399 18.105 39.5287 19.5075C44.278 20.7825 47.8162 25.1175 47.8162 30.2812C47.8162 32.9269 45.6805 35.0625 43.0349 35.0625ZM4.78491 35.0625C2.13929 35.0625 0.00366211 32.9269 0.00366211 30.2812C0.00366211 25.1175 3.50991 20.7825 8.29116 19.5075C7.11179 18.105 6.37866 16.32 6.37866 14.3438C6.37866 12.2303 7.21822 10.2034 8.71266 8.70899C10.2071 7.21456 12.234 6.375 14.3474 6.375C15.2399 6.375 15.9412 7.07625 15.9412 7.96875C15.9412 8.86125 15.2399 9.5625 14.3474 9.5625C11.7018 9.5625 9.56616 11.6981 9.56616 14.3438C9.56616 16.9894 11.7018 19.125 14.3474 19.125C15.2399 19.125 15.9412 19.8263 15.9412 20.7188C15.9412 21.6112 15.2399 22.3125 14.3474 22.3125H11.1599C9.04647 22.3125 7.01959 23.1521 5.52516 24.6465C4.03072 26.1409 3.19116 28.1678 3.19116 30.2812C3.19116 31.1737 3.89241 31.875 4.78491 31.875C5.67741 31.875 6.37866 32.5763 6.37866 33.4688C6.37866 34.3612 5.67741 35.0625 4.78491 35.0625ZM33.4724 44.625H14.3474C11.7018 44.625 9.56616 42.4894 9.56616 39.8438V36.6562C9.56616 30.5044 14.5705 25.5 20.7224 25.5H27.0974C33.2493 25.5 38.2537 30.5044 38.2537 36.6562V39.8438C38.2537 42.4894 36.118 44.625 33.4724 44.625ZM20.7224 28.6875C18.609 28.6875 16.5821 29.5271 15.0877 31.0215C13.5932 32.5159 12.7537 34.5428 12.7537 36.6562V39.8438C12.7537 40.7363 13.4549 41.4375 14.3474 41.4375H33.4724C34.3649 41.4375 35.0662 40.7363 35.0662 39.8438V36.6562C35.0662 34.5428 34.2266 32.5159 32.7322 31.0215C31.2377 29.5271 29.2109 28.6875 27.0974 28.6875H20.7224Z" fill="white"/>
</g>
<defs>
<clipPath id="clip0_2_962">
<rect width="15" height="16" fill="white"/>
</clipPath>
</defs>
</svg>
