<svg width="16" height="16" viewBox="0 0 16 16" fill="none" xmlns="http://www.w3.org/2000/svg">
<path d="M13.5 4.125H10.875V4C10.875 3.2375 10.5721 2.50624 10.0329 1.96707C9.49377 1.4279 8.7625 1.125 8 1.125C7.2375 1.125 6.50624 1.4279 5.96707 1.96707C5.4279 2.50624 5.125 3.2375 5.125 4V4.125H2.5C2.26794 4.125 2.04538 4.21719 1.88128 4.38128C1.71719 4.54538 1.625 4.76794 1.625 5V12.5C1.625 12.7321 1.71719 12.9546 1.88128 13.1187C2.04538 13.2828 2.26794 13.375 2.5 13.375H13.5C13.7321 13.375 13.9546 13.2828 14.1187 13.1187C14.2828 12.9546 14.375 12.7321 14.375 12.5V5C14.375 4.76794 14.2828 4.54538 14.1187 4.38128C13.9546 4.21719 13.7321 4.125 13.5 4.125ZM5.875 4C5.875 3.43641 6.09888 2.89591 6.4974 2.4974C6.89591 2.09888 7.43641 1.875 8 1.875C8.56359 1.875 9.10409 2.09888 9.5026 2.4974C9.90112 2.89591 10.125 3.43641 10.125 4V4.125H5.875V4ZM13.625 12.5C13.625 12.5332 13.6118 12.5649 13.5884 12.5884C13.5649 12.6118 13.5332 12.625 13.5 12.625H2.5C2.46685 12.625 2.43505 12.6118 2.41161 12.5884C2.38817 12.5649 2.375 12.5332 2.375 12.5V5C2.375 4.96685 2.38817 4.93505 2.41161 4.91161C2.43505 4.88817 2.46685 4.875 2.5 4.875H13.5C13.5332 4.875 13.5649 4.88817 13.5884 4.91161C13.6118 4.93505 13.625 4.96685 13.625 5V12.5Z" fill="black"/>
</svg>
