<svg width="16" height="16" viewBox="0 0 16 16" fill="none" xmlns="http://www.w3.org/2000/svg">
<path d="M8 10.375C8.46973 10.375 8.92891 10.2357 9.31948 9.97474C9.71005 9.71377 10.0145 9.34285 10.1942 8.90887C10.374 8.4749 10.421 7.99737 10.3294 7.53666C10.2377 7.07596 10.0115 6.65277 9.67938 6.32062C9.34723 5.98847 8.92404 5.76227 8.46334 5.67063C8.00264 5.57899 7.5251 5.62603 7.09113 5.80579C6.65715 5.98554 6.28623 6.28995 6.02526 6.68052C5.76429 7.07109 5.625 7.53027 5.625 8C5.625 8.62989 5.87522 9.23398 6.32062 9.67938C6.76602 10.1248 7.37011 10.375 8 10.375ZM8 6.375C8.32139 6.375 8.63557 6.4703 8.9028 6.64886C9.17003 6.82742 9.37831 7.08121 9.5013 7.37814C9.6243 7.67507 9.65648 8.0018 9.59378 8.31702C9.53107 8.63224 9.37631 8.92179 9.14905 9.14905C8.92179 9.37631 8.63224 9.53107 8.31702 9.59378C8.0018 9.65648 7.67507 9.6243 7.37814 9.5013C7.08121 9.37831 6.82742 9.17003 6.64886 8.9028C6.4703 8.63557 6.375 8.32139 6.375 8C6.375 7.56902 6.54621 7.1557 6.85095 6.85095C7.1557 6.54621 7.56902 6.375 8 6.375ZM15 3.625H1C0.900544 3.625 0.805161 3.66451 0.734835 3.73483C0.664509 3.80516 0.625 3.90054 0.625 4V12C0.625 12.0995 0.664509 12.1948 0.734835 12.2652C0.805161 12.3355 0.900544 12.375 1 12.375H15C15.0995 12.375 15.1948 12.3355 15.2652 12.2652C15.3355 12.1948 15.375 12.0995 15.375 12V4C15.375 3.90054 15.3355 3.80516 15.2652 3.73483C15.1948 3.66451 15.0995 3.625 15 3.625ZM1.375 6.80125C1.95727 6.64635 2.4883 6.34039 2.91435 5.91435C3.34039 5.4883 3.64635 4.95727 3.80125 4.375H12.1987C12.3537 4.95727 12.6596 5.4883 13.0857 5.91435C13.5117 6.34039 14.0427 6.64635 14.625 6.80125V9.19875C14.0427 9.35365 13.5117 9.65961 13.0857 10.0857C12.6596 10.5117 12.3537 11.0427 12.1987 11.625H3.80125C3.64635 11.0427 3.34039 10.5117 2.91435 10.0857C2.4883 9.65961 1.95727 9.35365 1.375 9.19875V6.80125ZM14.625 6.01813C14.2452 5.88544 13.9002 5.66879 13.6157 5.3843C13.3312 5.09981 13.1146 4.75482 12.9819 4.375H14.625V6.01813ZM3.01813 4.375C2.88544 4.75482 2.66879 5.09981 2.3843 5.3843C2.09981 5.66879 1.75482 5.88544 1.375 6.01813V4.375H3.01813ZM1.375 9.98188C1.75482 10.1146 2.09981 10.3312 2.3843 10.6157C2.66879 10.9002 2.88544 11.2452 3.01813 11.625H1.375V9.98188ZM12.9819 11.625C13.1146 11.2452 13.3312 10.9002 13.6157 10.6157C13.9002 10.3312 14.2452 10.1146 14.625 9.98188V11.625H12.9819Z" fill="black"/>
</svg>
