<svg width="43" height="43" viewBox="0 0 43 43" fill="none" xmlns="http://www.w3.org/2000/svg">
<mask id="mask0_2_74" style="mask-type:luminance" maskUnits="userSpaceOnUse" x="0" y="0" width="43" height="44">
<path d="M43 0H0V43.0005H43V0Z" fill="white"/>
</mask>
<g mask="url(#mask0_2_74)">
<path d="M42.9531 22.8439C42.9792 22.4528 43 21.9176 43 21.5003C43 21.031 42.9812 20.5438 42.9403 19.9674C42.5498 14.552 40.123 9.48544 36.1477 5.78712C32.1726 2.08881 26.9444 0.0331687 21.515 0.0338136C16.0856 0.0344586 10.8578 2.09134 6.88363 5.79059C2.90945 9.48987 0.483698 14.557 0.09448 19.9725C-0.294739 25.3879 1.38145 30.75 4.7858 34.9795C8.19015 39.209 13.07 41.9924 18.4436 42.7693C23.8171 43.5464 29.2857 42.2596 33.7488 39.1678C38.2118 36.076 41.3383 31.4085 42.4992 26.1047C42.4992 26.1047 42.5675 25.8421 42.6244 25.5311C42.7651 24.7336 42.9163 23.5326 42.9531 22.8439ZM21.5003 40.313C17.8365 40.3141 14.2521 39.2455 11.1871 37.2381C8.12214 35.2308 5.71001 32.372 4.24686 29.0132C2.78371 25.6542 2.33324 21.9411 2.95072 18.3297C3.5682 14.7183 5.22676 11.3658 7.72281 8.68373C10.2188 6.0017 13.4437 4.10687 17.0015 3.23187C20.5593 2.35688 24.2951 2.53979 27.7504 3.75816C31.2057 4.97655 34.23 7.17735 36.4522 10.0904C38.6743 13.0034 39.9973 16.5019 40.2591 20.1564C40.2909 20.6009 40.3128 21.0477 40.3128 21.5003C40.3128 21.9528 40.2909 22.3994 40.2591 22.8439H23.815C23.5192 23.3561 23.0627 23.7564 22.5162 23.9827C21.9697 24.209 21.3639 24.2486 20.7925 24.0955C20.2213 23.9424 19.7164 23.605 19.3564 23.1358C18.9963 22.6665 18.8012 22.0916 18.8012 21.5001C18.8012 20.9087 18.9963 20.3337 19.3564 19.8645C19.7164 19.3952 20.2213 19.0579 20.7925 18.9048C21.3639 18.7516 21.9697 18.7913 22.5162 19.0176C23.0627 19.2439 23.5192 19.6442 23.815 20.1564H37.5653C37.2306 16.1254 35.3943 12.3672 32.4197 9.62622C29.4455 6.88525 25.5499 5.36146 21.5051 5.35674C17.4602 5.35202 13.5612 6.86671 10.5804 9.60077C7.59952 12.3348 5.75433 16.0888 5.41032 20.1189C5.0663 24.149 6.24858 28.1613 8.72294 31.361C11.1973 34.5608 14.7832 36.7144 18.7703 37.3953C22.7574 38.076 26.8547 37.2345 30.2508 35.0374C33.6468 32.8402 36.0934 29.4475 37.1065 25.5316H39.8738C38.9546 29.7208 36.6318 33.4698 33.2902 36.1581C29.9486 38.8464 25.7889 40.3123 21.5003 40.313ZM21.5003 13.4388C20.0847 13.437 18.6936 13.8081 17.4669 14.5146C16.2402 15.221 15.2211 16.2381 14.5122 17.4634C13.8032 18.6887 13.4294 20.079 13.4284 21.4946C13.4273 22.9102 13.799 24.3012 14.506 25.5275C15.2131 26.7538 16.2306 27.7726 17.4562 28.4809C18.6818 29.1892 20.0724 29.5623 21.488 29.5628C22.9036 29.5633 24.2943 29.1908 25.5204 28.4832C26.7465 27.7755 27.7645 26.7577 28.4723 25.5316H31.4518C30.5161 27.844 28.8055 29.7591 26.613 30.9486C24.4203 32.1382 21.8822 32.5282 19.4336 32.0516C16.9851 31.5751 14.7785 30.2617 13.192 28.3367C11.6055 26.4115 10.7379 23.9948 10.7379 21.5003C10.7379 19.0057 11.6055 16.5889 13.192 14.6639C14.7785 12.7389 16.9851 11.4256 19.4336 10.949C21.8822 10.4725 24.4203 10.8624 26.613 12.0519C28.8055 13.2414 30.5161 15.1564 31.4518 17.4689H28.4718C27.7661 16.244 26.7501 15.2266 25.5261 14.5191C24.3021 13.8116 22.9135 13.439 21.4998 13.4388H21.5003Z" fill="#B60636"/>
</g>
</svg>
